<svg width="25" height="24" viewBox="0 0 25 24" fill="none" xmlns="http://www.w3.org/2000/svg">
<path d="M13.0475 5.82031C12.3331 5.82031 11.6348 6.03535 11.0408 6.43824C10.4468 6.84112 9.98388 7.41376 9.7105 8.08373C9.43712 8.7537 9.36558 9.49093 9.50495 10.2022C9.64432 10.9134 9.98832 11.5667 10.4935 12.0795C10.9986 12.5923 11.6422 12.9415 12.3429 13.083C13.0435 13.2244 13.7698 13.1518 14.4298 12.8743C15.0898 12.5968 15.6539 12.1268 16.0508 11.5239C16.4477 10.9209 16.6595 10.212 16.6595 9.48686C16.6586 8.5147 16.2778 7.5826 15.6006 6.89518C14.9234 6.20775 14.0052 5.82118 13.0475 5.82031Z" fill="currentColor"/>
<path d="M20.9787 12.1774L19.8234 9.55921L20.9787 6.94102L18.5295 5.5163L17.9492 2.71048L15.1411 3.01702L13.0465 1.09375L10.952 3.01702L8.14386 2.71048L7.56353 5.5163L5.11328 6.9443L6.26855 9.56248L5.11328 12.1774L7.56246 13.6054L7.87734 15.125L5.26266 20.7639L7.99126 20.7999L9.75801 22.9119L12.3276 17.3679L13.0454 18.0225L13.7633 17.3679L16.3339 22.9119L18.1007 20.801L20.8293 20.765L18.2146 15.1261L18.5295 13.6065L20.9787 12.1774ZM13.0465 14.705C12.0442 14.7046 11.0646 14.4025 10.2314 13.8369C9.39821 13.2713 8.74895 12.4677 8.36568 11.5276C7.98242 10.5875 7.88235 9.55311 8.07815 8.55527C8.27395 7.55744 8.75681 6.64094 9.46569 5.92165C10.1746 5.20237 11.0776 4.7126 12.0607 4.51426C13.0438 4.31593 14.0627 4.41794 14.9887 4.8074C15.9146 5.19685 16.706 5.85627 17.2628 6.70226C17.8196 7.54826 18.1168 8.54286 18.1168 9.5603C18.1154 10.9247 17.5807 12.2328 16.6301 13.1973C15.6794 14.1619 14.3906 14.7042 13.0465 14.705Z" fill="currentColor"/>
</svg>
