<svg width="24" height="24" viewBox="0 0 24 24" fill="none" xmlns="http://www.w3.org/2000/svg">
<g id="Dreipunktmenu">
<path id="Union" fill-rule="evenodd" clip-rule="evenodd" d="M14.1739 6.25883C14.1739 7.41143 13.2396 8.34579 12.087 8.34579C10.9344 8.34579 10 7.41143 10 6.25883C10 5.10624 10.9344 4.17188 12.087 4.17188C13.2396 4.17188 14.1739 5.10624 14.1739 6.25883ZM14.1739 12.5198C14.1739 13.6724 13.2396 14.6068 12.087 14.6068C10.9344 14.6068 10 13.6724 10 12.5198C10 11.3672 10.9344 10.4329 12.087 10.4329C13.2396 10.4329 14.1739 11.3672 14.1739 12.5198ZM12.087 20.8675C13.2396 20.8675 14.1739 19.9332 14.1739 18.7806C14.1739 17.628 13.2396 16.6936 12.087 16.6936C10.9344 16.6936 10 17.628 10 18.7806C10 19.9332 10.9344 20.8675 12.087 20.8675Z" fill="currentColor"/>
</g>
</svg>
