<svg width="24" height="24" viewBox="0 0 24 24" fill="none" xmlns="http://www.w3.org/2000/svg">
<g id="error">
<path id="Vector" d="M11 15.125H13V17.125H11V15.125ZM11 7.125H13V13.125H11V7.125ZM11.99 2.125C6.47 2.125 2 6.605 2 12.125C2 17.645 6.47 22.125 11.99 22.125C17.52 22.125 22 17.645 22 12.125C22 6.605 17.52 2.125 11.99 2.125ZM12 20.125C7.58 20.125 4 16.545 4 12.125C4 7.705 7.58 4.125 12 4.125C16.42 4.125 20 7.705 20 12.125C20 16.545 16.42 20.125 12 20.125Z" fill="currentColor"/>
</g>
</svg>
