<svg width="24" height="24" viewBox="0 0 24 24" fill="none" xmlns="http://www.w3.org/2000/svg">
<path d="M11.5 14.9001C12.615 14.9001 13.5626 15.6159 13.9092 16.6127L13.9511 16.606L14.05 16.6H19.15C19.6195 16.6 20 16.9806 20 17.45C20 17.8857 19.672 18.2449 19.2489 18.2941L19.15 18.3H14.05C14.0022 18.3 13.9551 18.2961 13.9092 18.2881C13.5626 19.2842 12.615 20 11.5 20C10.385 20 9.43739 19.2841 9.09076 18.2874L9.04893 18.2941L8.94998 18.3H3.85C3.38051 18.3 3 17.9195 3 17.45C3 17.0144 3.32805 16.6551 3.75106 16.606L3.85 16.6H8.94999C8.9978 16.6 9.04495 16.604 9.09077 16.612C9.43741 15.6159 10.385 14.9001 11.5 14.9001ZM11.5 16.6001C11.0305 16.6001 10.65 16.9806 10.65 17.4501C10.65 17.9196 11.0305 18.3001 11.5 18.3001C11.9695 18.3001 12.35 17.9196 12.35 17.4501C12.35 16.9806 11.9695 16.6001 11.5 16.6001ZM5.55002 8.95003C6.66498 8.95003 7.61262 9.66589 7.95925 10.6626L8.00109 10.656L8.10003 10.65H19.15C19.6195 10.65 20 11.0305 20 11.5C20 11.9356 19.672 12.2949 19.2489 12.344L19.15 12.35H8.10003C8.05221 12.35 8.00507 12.346 7.95925 12.3381C7.6126 13.3342 6.66499 14.05 5.55001 14.05C4.14153 14.05 3.00002 12.9084 3.00002 11.5C3.00002 10.0915 4.14153 8.94994 5.55001 8.94994L5.55002 8.95003ZM5.55002 10.65C5.08053 10.65 4.70002 11.0306 4.70002 11.5C4.70002 11.9695 5.08053 12.3501 5.55002 12.3501C6.01951 12.3501 6.40002 11.9695 6.40002 11.5C6.40002 11.0306 6.01951 10.65 5.55002 10.65ZM14.9 3C16.015 3 16.9626 3.71586 17.3092 4.71259L17.3511 4.70595L17.45 4.69997H19.15C19.6195 4.69997 20 5.08049 20 5.54998C20 5.9856 19.672 6.34487 19.2489 6.394L19.15 6.39997H17.45C17.4022 6.39997 17.355 6.39599 17.3092 6.38802C16.9626 7.38413 16.015 8.09993 14.9 8.09993C13.785 8.09993 12.8374 7.38407 12.4908 6.38734L12.4489 6.39398L12.35 6.39996H3.85C3.38051 6.39996 3 6.01945 3 5.54995C3 5.11433 3.32805 4.75506 3.75106 4.70593L3.85 4.69996H12.35C12.3978 4.69996 12.4449 4.70394 12.4908 4.71191C12.8374 3.71581 13.785 3 14.9 3V3ZM14.9 4.70001C14.4305 4.70001 14.05 5.08052 14.05 5.55001C14.05 6.01951 14.4305 6.40002 14.9 6.40002C15.3695 6.40002 15.75 6.01951 15.75 5.55001C15.75 5.08052 15.3695 4.70001 14.9 4.70001Z" fill="currentColor"/>
</svg>
