<svg width="25" height="24" viewBox="0 0 25 24" fill="none" xmlns="http://www.w3.org/2000/svg">
<path d="M19.5209 8.87156C19.5415 8.72156 19.5518 8.56656 19.5518 8.40156C19.5518 8.24156 19.5415 8.08156 19.5158 7.93156L20.5593 7.14156C20.6518 7.07156 20.6775 6.93656 20.621 6.83656L19.634 5.17656C19.5723 5.06656 19.4438 5.03156 19.3308 5.06656L18.1022 5.54656C17.8452 5.35656 17.5728 5.19656 17.2695 5.07656L17.0844 3.80656C17.0639 3.68656 16.9611 3.60156 16.8377 3.60156H14.8638C14.7405 3.60156 14.6428 3.68656 14.6223 3.80656L14.4372 5.07656C14.1339 5.19656 13.8563 5.36156 13.6045 5.54656L12.3759 5.06656C12.2629 5.02656 12.1344 5.06656 12.0727 5.17656L11.0909 6.83656C11.0292 6.94156 11.0498 7.07156 11.1526 7.14156L12.196 7.93156C12.1703 8.08156 12.1498 8.24656 12.1498 8.40156C12.1498 8.55656 12.1601 8.72156 12.1858 8.87156L11.1423 9.66156C11.0498 9.73156 11.0241 9.86656 11.0806 9.96656L12.0675 11.6266C12.1292 11.7366 12.2577 11.7716 12.3708 11.7366L13.5993 11.2566C13.8563 11.4466 14.1288 11.6066 14.4321 11.7266L14.6171 12.9966C14.6428 13.1166 14.7405 13.2016 14.8638 13.2016H16.8377C16.9611 13.2016 17.0639 13.1166 17.0793 12.9966L17.2644 11.7266C17.5676 11.6066 17.8452 11.4466 18.0971 11.2566L19.3256 11.7366C19.4387 11.7766 19.5672 11.7366 19.6289 11.6266L20.6158 9.96656C20.6775 9.85656 20.6518 9.73156 20.5541 9.66156L19.5209 8.87156ZM15.8508 10.2016C14.833 10.2016 14.0003 9.39156 14.0003 8.40156C14.0003 7.41156 14.833 6.60156 15.8508 6.60156C16.8686 6.60156 17.7013 7.41156 17.7013 8.40156C17.7013 9.39156 16.8686 10.2016 15.8508 10.2016Z" fill="currentColor"/>
<path d="M12.2496 15.197C13.3515 15.197 14.288 15.9269 14.6305 16.9431L14.6718 16.9364L14.7696 16.9303H19.8096C20.2736 16.9303 20.6496 17.3182 20.6496 17.7969C20.6496 18.2411 20.3254 18.6074 19.9074 18.6575L19.8096 18.6636H14.7696C14.7224 18.6636 14.6758 18.6595 14.6305 18.6514C14.2879 19.667 13.3515 20.3969 12.2496 20.3969C11.1477 20.3969 10.2113 19.667 9.86872 18.6507L9.82737 18.6575L9.72959 18.6636H4.68961C4.22564 18.6636 3.84961 18.2756 3.84961 17.7969C3.84961 17.3527 4.1738 16.9864 4.59183 16.9363L4.68961 16.9302H9.7296C9.77685 16.9302 9.82344 16.9343 9.86872 16.9424C10.2113 15.9268 11.1478 15.197 12.2496 15.197ZM12.2496 16.9303C11.7856 16.9303 11.4096 17.3183 11.4096 17.797C11.4096 18.2757 11.7856 18.6636 12.2496 18.6636C12.7136 18.6636 13.0896 18.2757 13.0896 17.797C13.0896 17.3183 12.7136 16.9303 12.2496 16.9303ZM6.36963 9.13027C7.47147 9.13027 8.40797 9.86017 8.75052 10.8764L8.79186 10.8697L8.88964 10.8636H10.7096C11.1736 10.8636 11.5496 11.2515 11.5496 11.7302C11.5496 12.1744 11.2254 12.5407 10.8074 12.5908L10.7096 12.5969H8.88964C8.84239 12.5969 8.79579 12.5928 8.75051 12.5847C8.40794 13.6004 7.47148 14.3302 6.36962 14.3302C4.97771 14.3302 3.84963 13.1663 3.84963 11.7302C3.84963 10.2941 4.97772 9.13027 6.36963 9.13027ZM6.36963 10.8636C5.90566 10.8636 5.52963 11.2516 5.52963 11.7303C5.52963 12.209 5.90566 12.597 6.36963 12.597C6.83359 12.597 7.20963 12.209 7.20963 11.7303C7.20963 11.2516 6.83359 10.8636 6.36963 10.8636Z" fill="currentColor"/>
<path d="M9.92726 4.79689C10.3912 4.79689 10.7673 5.18486 10.7673 5.66356C10.7673 6.10773 10.4431 6.47403 10.025 6.52413L4.68961 6.53021C4.22564 6.53021 3.84961 6.14223 3.84961 5.66354C3.84961 5.21937 4.1738 4.85306 4.59183 4.80297L4.68961 4.79688L9.92726 4.79689Z" fill="currentColor"/>
</svg>
