<svg width="24" height="25" viewBox="0 0 24 25" fill="none" xmlns="http://www.w3.org/2000/svg">
<g id="pending_24dp_2F5776_FILL1_wght400_GRAD0_opsz24 1">
<path id="Vector" d="M7 13.625C7.41667 13.625 7.77083 13.4792 8.0625 13.1875C8.35417 12.8958 8.5 12.5417 8.5 12.125C8.5 11.7083 8.35417 11.3542 8.0625 11.0625C7.77083 10.7708 7.41667 10.625 7 10.625C6.58333 10.625 6.22917 10.7708 5.9375 11.0625C5.64583 11.3542 5.5 11.7083 5.5 12.125C5.5 12.5417 5.64583 12.8958 5.9375 13.1875C6.22917 13.4792 6.58333 13.625 7 13.625ZM12 13.625C12.4167 13.625 12.7708 13.4792 13.0625 13.1875C13.3542 12.8958 13.5 12.5417 13.5 12.125C13.5 11.7083 13.3542 11.3542 13.0625 11.0625C12.7708 10.7708 12.4167 10.625 12 10.625C11.5833 10.625 11.2292 10.7708 10.9375 11.0625C10.6458 11.3542 10.5 11.7083 10.5 12.125C10.5 12.5417 10.6458 12.8958 10.9375 13.1875C11.2292 13.4792 11.5833 13.625 12 13.625ZM17 13.625C17.4167 13.625 17.7708 13.4792 18.0625 13.1875C18.3542 12.8958 18.5 12.5417 18.5 12.125C18.5 11.7083 18.3542 11.3542 18.0625 11.0625C17.7708 10.7708 17.4167 10.625 17 10.625C16.5833 10.625 16.2292 10.7708 15.9375 11.0625C15.6458 11.3542 15.5 11.7083 15.5 12.125C15.5 12.5417 15.6458 12.8958 15.9375 13.1875C16.2292 13.4792 16.5833 13.625 17 13.625ZM12 22.125C10.6167 22.125 9.31667 21.8625 8.1 21.3375C6.88333 20.8125 5.825 20.1 4.925 19.2C4.025 18.3 3.3125 17.2417 2.7875 16.025C2.2625 14.8083 2 13.5083 2 12.125C2 10.7417 2.2625 9.44167 2.7875 8.225C3.3125 7.00833 4.025 5.95 4.925 5.05C5.825 4.15 6.88333 3.4375 8.1 2.9125C9.31667 2.3875 10.6167 2.125 12 2.125C13.3833 2.125 14.6833 2.3875 15.9 2.9125C17.1167 3.4375 18.175 4.15 19.075 5.05C19.975 5.95 20.6875 7.00833 21.2125 8.225C21.7375 9.44167 22 10.7417 22 12.125C22 13.5083 21.7375 14.8083 21.2125 16.025C20.6875 17.2417 19.975 18.3 19.075 19.2C18.175 20.1 17.1167 20.8125 15.9 21.3375C14.6833 21.8625 13.3833 22.125 12 22.125Z" fill="currentColor"/>
</g>
</svg>
