<svg width="25" height="24" viewBox="0 0 25 24" fill="none" xmlns="http://www.w3.org/2000/svg">
<g>
<path d="M21.8974 10.0216H20.9016V9.29393C20.9016 7.56034 19.3732 6.16919 17.5205 6.16919H13.4911V4.11456C13.4911 3.75072 13.1668 3.42969 12.75 3.42969C12.3563 3.42969 12.0089 3.72932 12.0089 4.11456V6.16919H7.97947C6.10368 6.16919 4.59842 7.58174 4.59842 9.29393V10.0216H3.60263C2.58368 10.0216 1.75 10.7921 1.75 11.7338V14.1309C1.75 15.0726 2.58368 15.8431 3.60263 15.8431H4.59842V16.5707C4.59842 18.3043 6.12684 19.6955 7.97947 19.6955H17.5205C19.3963 19.6955 20.9016 18.2829 20.9016 16.5707V15.8431H21.8974C22.9163 15.8431 23.75 15.0726 23.75 14.1309V11.7338C23.75 10.7921 22.9163 10.0216 21.8974 10.0216ZM3.60263 14.4733C3.39421 14.4733 3.20895 14.3235 3.20895 14.1095V11.7338C3.20895 11.5412 3.37105 11.37 3.60263 11.37H4.59842V14.4733H3.60263ZM19.4426 16.5493C19.4426 17.5338 18.5858 18.3257 17.5205 18.3257H7.97947C6.91421 18.3257 6.05737 17.5338 6.05737 16.5493V9.29393C6.05737 8.30942 6.91421 7.51754 7.97947 7.51754H17.5205C18.5858 7.51754 19.4426 8.30942 19.4426 9.29393V16.5493ZM22.2911 14.1309C22.2911 14.3235 22.1289 14.4947 21.8974 14.4947H20.9016V11.37H21.8974C22.1058 11.37 22.2911 11.5198 22.2911 11.7338V14.1309Z" fill="currentColor"/>
<path d="M9.83311 12.4579C10.6772 12.4579 11.3615 11.8255 11.3615 11.0454C11.3615 10.2653 10.6772 9.63281 9.83311 9.63281C8.989 9.63281 8.30469 10.2653 8.30469 11.0454C8.30469 11.8255 8.989 12.4579 9.83311 12.4579Z" fill="currentColor"/>
<path d="M15.6671 12.4579C16.5113 12.4579 17.1956 11.8255 17.1956 11.0454C17.1956 10.2653 16.5113 9.63281 15.6671 9.63281C14.823 9.63281 14.1387 10.2653 14.1387 11.0454C14.1387 11.8255 14.823 12.4579 15.6671 12.4579Z" fill="currentColor"/>
<path d="M15.9002 13.8314C15.5296 13.6816 15.0896 13.8314 14.9275 14.1739C14.6265 14.7731 13.7465 15.2012 12.7507 15.2012C11.7549 15.2012 10.8749 14.7731 10.5739 14.1739C10.4118 13.8314 9.97175 13.6816 9.60123 13.8314C9.2307 13.9812 9.0686 14.3879 9.2307 14.7303C9.76333 15.8218 11.176 16.5495 12.7507 16.5495C14.3254 16.5495 15.7381 15.8218 16.2707 14.7303C16.4328 14.3879 16.2707 13.9812 15.9002 13.8314Z" fill="currentColor"/>
</g>
</svg>
