<svg width="25" height="24" viewBox="0 0 25 24" fill="none" xmlns="http://www.w3.org/2000/svg">
<path d="M11.4393 18.3443C13.4133 18.3443 15.098 17.6509 16.4934 16.264C17.8888 14.8771 18.5865 13.1881 18.5865 11.1971C18.5865 9.22311 17.8888 7.53841 16.4934 6.143C15.098 4.74759 13.4133 4.04988 11.4393 4.04988C9.44828 4.04988 7.75933 4.74759 6.37242 6.143C4.98552 7.53841 4.29207 9.22311 4.29207 11.1971C4.29207 13.1881 4.98552 14.8771 6.37242 16.264C7.75933 17.6509 9.44828 18.3443 11.4393 18.3443ZM11.4393 13.7497C12.154 13.7497 12.7581 13.5072 13.2516 13.0222C13.7451 12.5372 13.9919 11.9289 13.9919 11.1971C13.9919 10.4824 13.7451 9.87828 13.2516 9.38478C12.7581 8.89128 12.154 8.64453 11.4393 8.64453C10.7076 8.64453 10.0992 8.89128 9.6142 9.38478C9.12921 9.87828 8.88672 10.4824 8.88672 11.1971C8.88672 11.9289 9.12921 12.5372 9.6142 13.0222C10.0992 13.5072 10.7076 13.7497 11.4393 13.7497ZM11.4393 15.2812C10.2141 15.2812 9.07816 14.9537 8.0316 14.2985C6.98504 13.6433 6.16396 12.7712 5.56836 11.6821C5.48327 11.5289 5.44073 11.3673 5.44073 11.1971C5.44073 11.0269 5.48327 10.8653 5.56836 10.7121C6.16396 9.62302 6.98504 8.75089 8.0316 8.09572C9.07816 7.44056 10.2141 7.11298 11.4393 7.11298C12.6645 7.11298 13.7962 7.44481 14.8342 8.10849C15.8723 8.77216 16.6891 9.64004 17.2847 10.7121C17.3698 10.8653 17.4123 11.0269 17.4123 11.1971C17.4123 11.3673 17.3698 11.5289 17.2847 11.6821C16.6891 12.7712 15.8723 13.6433 14.8342 14.2985C13.7962 14.9537 12.6645 15.2812 11.4393 15.2812ZM11.4393 12.7287C11.8647 12.7287 12.2263 12.584 12.5241 12.2947C12.8219 12.0054 12.9708 11.6396 12.9708 11.1971C12.9708 10.7717 12.8219 10.4101 12.5241 10.1123C12.2263 9.81446 11.8647 9.66556 11.4393 9.66556C10.9969 9.66556 10.631 9.81446 10.3417 10.1123C10.0524 10.4101 9.90775 10.7717 9.90775 11.1971C9.90775 11.6396 10.0524 12.0054 10.3417 12.2947C10.631 12.584 10.9969 12.7287 11.4393 12.7287ZM11.4393 20.3864C10.163 20.3864 8.96755 20.1439 7.85292 19.6589C6.73829 19.1739 5.76831 18.5188 4.94298 17.6934C4.11764 16.8681 3.46248 15.8981 2.97749 14.7835C2.4925 13.6689 2.25 12.4734 2.25 11.1971C2.25 9.93784 2.4925 8.75089 2.97749 7.63626C3.46248 6.52163 4.11764 5.54739 4.94298 4.71355C5.76831 3.87971 6.73829 3.22029 7.85292 2.7353C8.96755 2.25031 10.163 2.00781 11.4393 2.00781C12.6986 2.00781 13.8855 2.25031 15.0002 2.7353C16.1148 3.22029 17.089 3.87971 17.9229 4.71355C18.7567 5.54739 19.4161 6.52163 19.9011 7.63626C20.3861 8.75089 20.6286 9.93784 20.6286 11.1971C20.6286 12.2862 20.4499 13.3158 20.0926 14.2857C19.7352 15.2557 19.2417 16.1406 18.6121 16.9404L21.9559 20.2843C22.1601 20.4885 22.258 20.7268 22.2495 20.999C22.241 21.2713 22.1346 21.5095 21.9304 21.7138C21.7262 21.9009 21.488 21.9945 21.2157 21.9945C20.9434 21.9945 20.7052 21.9009 20.501 21.7138L17.1571 18.3954C16.3573 19.025 15.4724 19.5143 14.5024 19.8631C13.5324 20.212 12.5114 20.3864 11.4393 20.3864Z" fill="currentColor"/>
</svg>