<svg width="22" height="22" viewBox="0 0 22 22" fill="none" xmlns="http://www.w3.org/2000/svg">
<g id="handreichungen">
<path id="Vector" d="M20.125 4.9375V17.625C20.125 19.55 18.55 21.125 16.625 21.125H10.2375C9.2925 21.125 8.4 20.7488 7.74375 20.0838L0.875 13.1013C0.875 13.1013 1.9775 12.025 2.0125 12.0075C2.205 11.8413 2.44125 11.7538 2.70375 11.7538C2.89625 11.7538 3.07125 11.8063 3.22875 11.8938C3.26375 11.9025 7 14.0463 7 14.0463V3.625C7 2.89875 7.58625 2.3125 8.3125 2.3125C9.03875 2.3125 9.625 2.89875 9.625 3.625V9.75H10.5V1.4375C10.5 0.71125 11.0863 0.125 11.8125 0.125C12.5388 0.125 13.125 0.71125 13.125 1.4375V9.75H14V2.3125C14 1.58625 14.5863 1 15.3125 1C16.0388 1 16.625 1.58625 16.625 2.3125V9.75H17.5V4.9375C17.5 4.21125 18.0863 3.625 18.8125 3.625C19.5388 3.625 20.125 4.21125 20.125 4.9375Z" fill="currentColor"/>
</g>
</svg>
